<?xml version="1.0" encoding="utf-8"?>
<!-- Generator: Adobe Illustrator 16.0.4, SVG Export Plug-In . SVG Version: 6.00 Build 0)  -->
<!DOCTYPE svg PUBLIC "-//W3C//DTD SVG 1.1//EN" "http://www.w3.org/Graphics/SVG/1.1/DTD/svg11.dtd">
<svg version="1.1" id="Calque_1" xmlns="http://www.w3.org/2000/svg" xmlns:xlink="http://www.w3.org/1999/xlink" x="0px" y="0px"
	 width="180px" height="30px" viewBox="0 0 180 30" enable-background="new 0 0 180 30" xml:space="preserve">
<g>
	<g>
		<polygon fill="#1F735B" points="7.614,0.2 11.603,11.151 0.313,11.151 		"/>
		<polygon fill="#1C5950" points="24.905,11.151 18.253,29.044 29.499,18.04 		"/>
		<polygon fill="#24454D" points="11.603,11.151 18.253,29.044 7.013,18.04 		"/>
		<polygon fill="#253E4A" points="11.603,11.151 7.013,18.04 0.3,11.151 		"/>
		<polygon fill="#1F735B" points="36.207,11.151 29.499,18.04 24.905,11.151 		"/>
		<polygon fill="#7FBFAC" points="24.905,11.151 11.603,11.151 18.253,0.201 		"/>
		<polygon fill="#20966A" points="28.892,0.2 24.905,11.151 36.207,11.151 		"/>
		<polygon fill="#1F735B" points="24.905,11.151 11.603,11.151 18.253,29.044 		"/>
		<polygon fill="#4AA879" points="18.253,0.201 24.905,11.151 28.892,0.2 		"/>
		<polygon fill="#20966A" points="18.253,0.201 11.603,11.151 7.614,0.2 		"/>
	</g>
	<g>
		<path fill="#20966A" d="M55.478,2.185l4.971,14.62h-2.35l-1.166-3.598h-5.261l-1.143,3.598h-2.33l4.971-14.62H55.478z
			 M52.337,11.127h3.909l-1.955-6.052L52.337,11.127z"/>
		<path fill="#20966A" d="M63.815,16.805V2.227h6.053c2.432,0,3.951,1.477,3.951,3.14v3.078c0,1.186-0.873,2.35-2.329,2.849
			l2.537,5.512h-2.433l-2.434-5.282h-3.016v5.282H63.815z M66.145,4.306v5.158h3.598c0.978,0,1.768-0.603,1.768-1.518V5.845
			c0-0.977-0.853-1.539-1.892-1.539H66.145z"/>
		<path fill="#20966A" d="M80.473,16.805V4.306H76.75v-2.08h9.484v2.08h-3.453v12.499H80.473z"/>
		<path fill="#20966A" d="M97.732,16.805h-8.256V2.227h2.329v12.519h5.927V16.805z"/>
		<path fill="#20966A" d="M107.402,2.185l4.97,14.62h-2.349l-1.165-3.598h-5.261l-1.145,3.598h-2.329l4.97-14.62H107.402z
			 M104.262,11.127h3.91l-1.955-6.052L104.262,11.127z"/>
		<path fill="#20966A" d="M115.74,16.805V2.227h2.35l5.698,10.294V2.227h2.309v14.579h-2.35l-5.677-10.232v10.232H115.74z"/>
		<path fill="#20966A" d="M133.084,16.805V4.306h-3.723v-2.08h9.483v2.08h-3.453v12.499H133.084z"/>
		<path fill="#20966A" d="M142.087,16.805V2.227h2.329v14.579H142.087z"/>
		<path fill="#20966A" d="M150.509,12.541v0.666c0,1.019,0.895,1.664,2.038,1.664h1.622c1.165,0,2.06-0.541,2.06-1.601v-0.625
			c0-1.726-7.57-2.142-7.57-6.155V5.159c0-1.58,1.414-3.036,3.681-3.036h1.83c2.434,0,3.952,1.497,3.952,3.161v1.601h-2.308V5.783
			c0-0.998-0.853-1.601-1.893-1.601h-1.206c-0.957,0-1.727,0.562-1.727,1.477v0.645c0,2.142,7.549,2.558,7.549,5.989v1.477
			c0,1.768-1.581,3.161-4.097,3.161h-2.038c-2.578,0-4.2-1.539-4.2-3.244v-1.145H150.509z"/>
	</g>
	<g>
		<path fill="#20966A" d="M173.133,16.998c-2.437,0-3.978-1.542-3.978-3.249V5.417c0-1.708,1.541-3.249,3.978-3.249h1.729
			c2.375,0,3.833,1.541,3.833,3.249v0.896h-2.312V5.896c0-1.021-0.792-1.666-1.77-1.666h-1.354c-0.958,0-1.77,0.646-1.77,1.666
			v2.479c0.562-0.354,1.146-0.583,1.645-0.583h1.729c2.375,0,3.833,1.541,3.833,3.249v2.708c0,1.708-1.458,3.249-3.833,3.249
			H173.133z M174.612,14.936c0.978,0,1.77-0.646,1.77-1.666v-1.75c0-1.021-0.792-1.667-1.77-1.667h-1.354
			c-0.958,0-1.77,0.646-1.77,1.667v1.75c0,1.021,0.812,1.666,1.77,1.666H174.612z"/>
	</g>
</g>
</svg>
